<?xml version="1.0" encoding="UTF-8" standalone="no"?>
<!DOCTYPE svg PUBLIC "-//W3C//DTD SVG 1.1//EN"
 "http://www.w3.org/Graphics/SVG/1.1/DTD/svg11.dtd">
<!-- Generated by graphviz version 5.0.0 (20220707.1540)
 -->
<!-- Title: dependencies Pages: 1 -->
<svg width="1751pt" height="247pt"
 viewBox="0.00 0.00 1751.00 246.80" xmlns="http://www.w3.org/2000/svg" xmlns:xlink="http://www.w3.org/1999/xlink">
<g id="graph0" class="graph" transform="scale(1 1) rotate(0) translate(4 242.8)">
<title>dependencies</title>
<polygon fill="white" stroke="transparent" points="-4,4 -4,-242.8 1747,-242.8 1747,4 -4,4"/>
<text text-anchor="middle" x="871.5" y="-8.2" font-family="sans-serif" font-size="14.00">dependencies</text>
<g id="clust1" class="cluster">
<title>cluster_AppModule</title>
<polygon fill="none" stroke="black" stroke-dasharray="1,5" points="8,-32.8 8,-230.8 1735,-230.8 1735,-32.8 8,-32.8"/>
</g>
<g id="clust9" class="cluster">
<title>cluster_AppModule_providers</title>
<polygon fill="none" stroke="black" points="1581,-40.8 1581,-92.8 1727,-92.8 1727,-40.8 1581,-40.8"/>
</g>
<g id="clust8" class="cluster">
<title>cluster_AppModule_bootstrap</title>
<polygon fill="none" stroke="black" points="747,-170.8 747,-222.8 871,-222.8 871,-170.8 747,-170.8"/>
</g>
<g id="clust6" class="cluster">
<title>cluster_AppModule_imports</title>
<polygon fill="none" stroke="black" points="399,-40.8 399,-92.8 1573,-92.8 1573,-40.8 399,-40.8"/>
</g>
<g id="clust2" class="cluster">
<title>cluster_AppModule_declarations</title>
<polygon fill="none" stroke="black" points="16,-40.8 16,-92.8 391,-92.8 391,-40.8 16,-40.8"/>
</g>
<!-- AppComponent -->
<g id="node1" class="node">
<title>AppComponent</title>
<polygon fill="#ffffb3" stroke="black" points="382.94,-84.8 277.06,-84.8 277.06,-48.8 382.94,-48.8 382.94,-84.8"/>
<text text-anchor="middle" x="330" y="-62.6" font-family="Times,serif" font-size="14.00">AppComponent</text>
</g>
<!-- AppModule -->
<g id="node4" class="node">
<title>AppModule</title>
<polygon fill="#8dd3c7" stroke="black" points="850.66,-149.8 847.66,-153.8 826.66,-153.8 823.66,-149.8 767.34,-149.8 767.34,-113.8 850.66,-113.8 850.66,-149.8"/>
<text text-anchor="middle" x="809" y="-127.6" font-family="Times,serif" font-size="14.00">AppModule</text>
</g>
<!-- AppComponent&#45;&gt;AppModule -->
<g id="edge1" class="edge">
<title>AppComponent&#45;&gt;AppModule</title>
<path fill="none" stroke="black" d="M330,-85.07C330,-103.36 330,-128.8 330,-128.8 330,-128.8 757.33,-128.8 757.33,-128.8"/>
<polygon fill="black" stroke="black" points="757.33,-132.3 767.33,-128.8 757.33,-125.3 757.33,-132.3"/>
</g>
<!-- BooksComponent -->
<g id="node2" class="node">
<title>BooksComponent</title>
<polygon fill="#ffffb3" stroke="black" points="259.62,-84.8 142.38,-84.8 142.38,-48.8 259.62,-48.8 259.62,-84.8"/>
<text text-anchor="middle" x="201" y="-62.6" font-family="Times,serif" font-size="14.00">BooksComponent</text>
</g>
<!-- BooksComponent&#45;&gt;AppModule -->
<g id="edge2" class="edge">
<title>BooksComponent&#45;&gt;AppModule</title>
<path fill="none" stroke="black" d="M201,-84.93C201,-105.37 201,-135.8 201,-135.8 201,-135.8 757.21,-135.8 757.21,-135.8"/>
<polygon fill="black" stroke="black" points="757.21,-139.3 767.21,-135.8 757.21,-132.3 757.21,-139.3"/>
</g>
<!-- SortBooksPipe -->
<g id="node3" class="node">
<title>SortBooksPipe</title>
<polygon fill="#ffffb3" stroke="black" points="124.01,-84.8 23.99,-84.8 23.99,-48.8 124.01,-48.8 124.01,-84.8"/>
<text text-anchor="middle" x="74" y="-62.6" font-family="Times,serif" font-size="14.00">SortBooksPipe</text>
</g>
<!-- SortBooksPipe&#45;&gt;AppModule -->
<g id="edge3" class="edge">
<title>SortBooksPipe&#45;&gt;AppModule</title>
<path fill="none" stroke="black" d="M74,-84.81C74,-107.29 74,-142.8 74,-142.8 74,-142.8 757.11,-142.8 757.11,-142.8"/>
<polygon fill="black" stroke="black" points="757.11,-146.3 767.11,-142.8 757.11,-139.3 757.11,-146.3"/>
</g>
<!-- AppComponent  -->
<g id="node10" class="node">
<title>AppComponent </title>
<polygon fill="#80b1d3" stroke="black" points="863.44,-214.8 754.56,-214.8 754.56,-178.8 863.44,-178.8 863.44,-214.8"/>
<text text-anchor="middle" x="809" y="-192.6" font-family="Times,serif" font-size="14.00">AppComponent </text>
</g>
<!-- AppModule&#45;&gt;AppComponent  -->
<g id="edge9" class="edge">
<title>AppModule&#45;&gt;AppComponent </title>
<path fill="none" stroke="black" stroke-dasharray="1,5" d="M809,-149.91C809,-149.91 809,-168.79 809,-168.79"/>
<polygon fill="black" stroke="black" points="805.5,-168.79 809,-178.79 812.5,-168.79 805.5,-168.79"/>
</g>
<!-- AppRoutingModule -->
<g id="node5" class="node">
<title>AppRoutingModule</title>
<polygon fill="#8dd3c7" stroke="black" points="1565.28,-84.8 1562.28,-88.8 1541.28,-88.8 1538.28,-84.8 1436.72,-84.8 1436.72,-48.8 1565.28,-48.8 1565.28,-84.8"/>
<text text-anchor="middle" x="1501" y="-62.6" font-family="Times,serif" font-size="14.00">AppRoutingModule</text>
</g>
<!-- AppRoutingModule&#45;&gt;AppModule -->
<g id="edge4" class="edge">
<title>AppRoutingModule&#45;&gt;AppModule</title>
<path fill="none" stroke="black" d="M1501,-84.93C1501,-105.37 1501,-135.8 1501,-135.8 1501,-135.8 860.73,-135.8 860.73,-135.8"/>
<polygon fill="black" stroke="black" points="860.73,-132.3 850.73,-135.8 860.73,-139.3 860.73,-132.3"/>
</g>
<!-- provideAnalytics(() =&gt; getAnalytics()) -->
<g id="node6" class="node">
<title>provideAnalytics(() =&gt; getAnalytics())</title>
<polygon fill="#8dd3c7" stroke="black" points="1418.94,-84.8 1415.94,-88.8 1394.94,-88.8 1391.94,-84.8 1185.06,-84.8 1185.06,-48.8 1418.94,-48.8 1418.94,-84.8"/>
<text text-anchor="middle" x="1302" y="-62.6" font-family="Times,serif" font-size="14.00">provideAnalytics(() =&gt; getAnalytics())</text>
</g>
<!-- provideAnalytics(() =&gt; getAnalytics())&#45;&gt;AppModule -->
<g id="edge5" class="edge">
<title>provideAnalytics(() =&gt; getAnalytics())&#45;&gt;AppModule</title>
<path fill="none" stroke="black" d="M1302,-85.07C1302,-103.36 1302,-128.8 1302,-128.8 1302,-128.8 861.03,-128.8 861.03,-128.8"/>
<polygon fill="black" stroke="black" points="861.03,-125.3 851.03,-128.8 861.03,-132.3 861.03,-125.3"/>
</g>
<!-- provideAuth(() =&gt; getAuth()) -->
<g id="node7" class="node">
<title>provideAuth(() =&gt; getAuth())</title>
<polygon fill="#8dd3c7" stroke="black" points="1167.13,-84.8 1164.13,-88.8 1143.13,-88.8 1140.13,-84.8 984.87,-84.8 984.87,-48.8 1167.13,-48.8 1167.13,-84.8"/>
<text text-anchor="middle" x="1076" y="-62.6" font-family="Times,serif" font-size="14.00">provideAuth(() =&gt; getAuth())</text>
</g>
<!-- provideAuth(() =&gt; getAuth())&#45;&gt;AppModule -->
<g id="edge6" class="edge">
<title>provideAuth(() =&gt; getAuth())&#45;&gt;AppModule</title>
<path fill="none" stroke="black" d="M1076,-84.81C1076,-100.85 1076,-121.8 1076,-121.8 1076,-121.8 860.72,-121.8 860.72,-121.8"/>
<polygon fill="black" stroke="black" points="860.72,-118.3 850.72,-121.8 860.72,-125.3 860.72,-118.3"/>
</g>
<!-- provideFirebaseApp(() =&gt; initializeApp(environment -->
<g id="node8" class="node">
<title>provideFirebaseApp(() =&gt; initializeApp(environment</title>
<polygon fill="#8dd3c7" stroke="black" points="966.59,-84.8 963.59,-88.8 942.59,-88.8 939.59,-84.8 651.41,-84.8 651.41,-48.8 966.59,-48.8 966.59,-84.8"/>
<text text-anchor="middle" x="809" y="-62.6" font-family="Times,serif" font-size="14.00">provideFirebaseApp(() =&gt; initializeApp(environment</text>
</g>
<!-- provideFirebaseApp(() =&gt; initializeApp(environment&#45;&gt;AppModule -->
<g id="edge7" class="edge">
<title>provideFirebaseApp(() =&gt; initializeApp(environment&#45;&gt;AppModule</title>
<path fill="none" stroke="black" d="M809,-84.91C809,-84.91 809,-103.79 809,-103.79"/>
<polygon fill="black" stroke="black" points="805.5,-103.79 809,-113.79 812.5,-103.79 805.5,-103.79"/>
</g>
<!-- provideFirestore(() =&gt; getFirestore()) -->
<g id="node9" class="node">
<title>provideFirestore(() =&gt; getFirestore())</title>
<polygon fill="#8dd3c7" stroke="black" points="633.16,-84.8 630.16,-88.8 609.16,-88.8 606.16,-84.8 406.84,-84.8 406.84,-48.8 633.16,-48.8 633.16,-84.8"/>
<text text-anchor="middle" x="520" y="-62.6" font-family="Times,serif" font-size="14.00">provideFirestore(() =&gt; getFirestore())</text>
</g>
<!-- provideFirestore(() =&gt; getFirestore())&#45;&gt;AppModule -->
<g id="edge8" class="edge">
<title>provideFirestore(() =&gt; getFirestore())&#45;&gt;AppModule</title>
<path fill="none" stroke="black" d="M520,-84.81C520,-100.85 520,-121.8 520,-121.8 520,-121.8 757.29,-121.8 757.29,-121.8"/>
<polygon fill="black" stroke="black" points="757.29,-125.3 767.29,-121.8 757.29,-118.3 757.29,-125.3"/>
</g>
<!-- BooksService -->
<g id="node11" class="node">
<title>BooksService</title>
<ellipse fill="#fdb462" stroke="black" cx="1654" cy="-66.8" rx="64.86" ry="18"/>
<text text-anchor="middle" x="1654" y="-62.6" font-family="Times,serif" font-size="14.00">BooksService</text>
</g>
<!-- BooksService&#45;&gt;AppModule -->
<g id="edge10" class="edge">
<title>BooksService&#45;&gt;AppModule</title>
<path fill="none" stroke="black" d="M1654,-84.81C1654,-107.29 1654,-142.8 1654,-142.8 1654,-142.8 860.9,-142.8 860.9,-142.8"/>
<polygon fill="black" stroke="black" points="860.9,-139.3 850.9,-142.8 860.9,-146.3 860.9,-139.3"/>
</g>
</g>
</svg>
