<?xml version="1.0" encoding="UTF-8" standalone="no"?>
<!DOCTYPE svg PUBLIC "-//W3C//DTD SVG 1.1//EN"
 "http://www.w3.org/Graphics/SVG/1.1/DTD/svg11.dtd">
<!-- Generated by graphviz version 5.0.0 (20220707.1540)
 -->
<!-- Title: dependencies Pages: 1 -->
<svg width="1751pt" height="247pt"
 viewBox="0.00 0.00 1751.00 246.80" xmlns="http://www.w3.org/2000/svg" xmlns:xlink="http://www.w3.org/1999/xlink">
<g id="graph0" class="graph" transform="scale(1 1) rotate(0) translate(4 242.8)">
<title>dependencies</title>
<polygon fill="white" stroke="transparent" points="-4,4 -4,-242.8 1747,-242.8 1747,4 -4,4"/>
<text text-anchor="middle" x="871.5" y="-8.2" font-family="sans-serif" font-size="14.00">dependencies</text>
<g id="clust1" class="cluster">
<title>cluster_AppModule</title>
<polygon fill="none" stroke="black" stroke-dasharray="1,5" points="8,-32.8 8,-230.8 1735,-230.8 1735,-32.8 8,-32.8"/>
</g>
<g id="clust2" class="cluster">
<title>cluster_AppModule_declarations</title>
<polygon fill="none" stroke="black" points="1352,-40.8 1352,-92.8 1727,-92.8 1727,-40.8 1352,-40.8"/>
</g>
<g id="clust6" class="cluster">
<title>cluster_AppModule_imports</title>
<polygon fill="none" stroke="black" points="170,-40.8 170,-92.8 1344,-92.8 1344,-40.8 170,-40.8"/>
</g>
<g id="clust8" class="cluster">
<title>cluster_AppModule_bootstrap</title>
<polygon fill="none" stroke="black" points="1011,-170.8 1011,-222.8 1135,-222.8 1135,-170.8 1011,-170.8"/>
</g>
<g id="clust9" class="cluster">
<title>cluster_AppModule_providers</title>
<polygon fill="none" stroke="black" points="16,-40.8 16,-92.8 162,-92.8 162,-40.8 16,-40.8"/>
</g>
<!-- AppComponent -->
<g id="node1" class="node">
<title>AppComponent</title>
<polygon fill="#ffffb3" stroke="black" points="1718.94,-84.8 1613.06,-84.8 1613.06,-48.8 1718.94,-48.8 1718.94,-84.8"/>
<text text-anchor="middle" x="1666" y="-62.6" font-family="Times,serif" font-size="14.00">AppComponent</text>
</g>
<!-- AppModule -->
<g id="node4" class="node">
<title>AppModule</title>
<polygon fill="#8dd3c7" stroke="black" points="1114.66,-149.8 1111.66,-153.8 1090.66,-153.8 1087.66,-149.8 1031.34,-149.8 1031.34,-113.8 1114.66,-113.8 1114.66,-149.8"/>
<text text-anchor="middle" x="1073" y="-127.6" font-family="Times,serif" font-size="14.00">AppModule</text>
</g>
<!-- AppComponent&#45;&gt;AppModule -->
<g id="edge1" class="edge">
<title>AppComponent&#45;&gt;AppModule</title>
<path fill="none" stroke="black" d="M1666,-84.81C1666,-107.29 1666,-142.8 1666,-142.8 1666,-142.8 1124.7,-142.8 1124.7,-142.8"/>
<polygon fill="black" stroke="black" points="1124.7,-139.3 1114.7,-142.8 1124.7,-146.3 1124.7,-139.3"/>
</g>
<!-- BooksComponent -->
<g id="node2" class="node">
<title>BooksComponent</title>
<polygon fill="#ffffb3" stroke="black" points="1595.62,-84.8 1478.38,-84.8 1478.38,-48.8 1595.62,-48.8 1595.62,-84.8"/>
<text text-anchor="middle" x="1537" y="-62.6" font-family="Times,serif" font-size="14.00">BooksComponent</text>
</g>
<!-- BooksComponent&#45;&gt;AppModule -->
<g id="edge2" class="edge">
<title>BooksComponent&#45;&gt;AppModule</title>
<path fill="none" stroke="black" d="M1537,-84.93C1537,-105.37 1537,-135.8 1537,-135.8 1537,-135.8 1125,-135.8 1125,-135.8"/>
<polygon fill="black" stroke="black" points="1125,-132.3 1115,-135.8 1125,-139.3 1125,-132.3"/>
</g>
<!-- SortBooksPipe -->
<g id="node3" class="node">
<title>SortBooksPipe</title>
<polygon fill="#ffffb3" stroke="black" points="1460.01,-84.8 1359.99,-84.8 1359.99,-48.8 1460.01,-48.8 1460.01,-84.8"/>
<text text-anchor="middle" x="1410" y="-62.6" font-family="Times,serif" font-size="14.00">SortBooksPipe</text>
</g>
<!-- SortBooksPipe&#45;&gt;AppModule -->
<g id="edge3" class="edge">
<title>SortBooksPipe&#45;&gt;AppModule</title>
<path fill="none" stroke="black" d="M1410,-85.07C1410,-103.36 1410,-128.8 1410,-128.8 1410,-128.8 1125,-128.8 1125,-128.8"/>
<polygon fill="black" stroke="black" points="1125,-125.3 1115,-128.8 1125,-132.3 1125,-125.3"/>
</g>
<!-- AppComponent  -->
<g id="node10" class="node">
<title>AppComponent </title>
<polygon fill="#80b1d3" stroke="black" points="1127.44,-214.8 1018.56,-214.8 1018.56,-178.8 1127.44,-178.8 1127.44,-214.8"/>
<text text-anchor="middle" x="1073" y="-192.6" font-family="Times,serif" font-size="14.00">AppComponent </text>
</g>
<!-- AppModule&#45;&gt;AppComponent  -->
<g id="edge9" class="edge">
<title>AppModule&#45;&gt;AppComponent </title>
<path fill="none" stroke="black" stroke-dasharray="1,5" d="M1073,-149.91C1073,-149.91 1073,-168.79 1073,-168.79"/>
<polygon fill="black" stroke="black" points="1069.5,-168.79 1073,-178.79 1076.5,-168.79 1069.5,-168.79"/>
</g>
<!-- AppRoutingModule -->
<g id="node5" class="node">
<title>AppRoutingModule</title>
<polygon fill="#8dd3c7" stroke="black" points="1336.28,-84.8 1333.28,-88.8 1312.28,-88.8 1309.28,-84.8 1207.72,-84.8 1207.72,-48.8 1336.28,-48.8 1336.28,-84.8"/>
<text text-anchor="middle" x="1272" y="-62.6" font-family="Times,serif" font-size="14.00">AppRoutingModule</text>
</g>
<!-- AppRoutingModule&#45;&gt;AppModule -->
<g id="edge4" class="edge">
<title>AppRoutingModule&#45;&gt;AppModule</title>
<path fill="none" stroke="black" d="M1272,-84.81C1272,-100.85 1272,-121.8 1272,-121.8 1272,-121.8 1124.72,-121.8 1124.72,-121.8"/>
<polygon fill="black" stroke="black" points="1124.72,-118.3 1114.72,-121.8 1124.72,-125.3 1124.72,-118.3"/>
</g>
<!-- provideAnalytics(() =&gt; getAnalytics()) -->
<g id="node6" class="node">
<title>provideAnalytics(() =&gt; getAnalytics())</title>
<polygon fill="#8dd3c7" stroke="black" points="1189.94,-84.8 1186.94,-88.8 1165.94,-88.8 1162.94,-84.8 956.06,-84.8 956.06,-48.8 1189.94,-48.8 1189.94,-84.8"/>
<text text-anchor="middle" x="1073" y="-62.6" font-family="Times,serif" font-size="14.00">provideAnalytics(() =&gt; getAnalytics())</text>
</g>
<!-- provideAnalytics(() =&gt; getAnalytics())&#45;&gt;AppModule -->
<g id="edge5" class="edge">
<title>provideAnalytics(() =&gt; getAnalytics())&#45;&gt;AppModule</title>
<path fill="none" stroke="black" d="M1073,-84.91C1073,-84.91 1073,-103.79 1073,-103.79"/>
<polygon fill="black" stroke="black" points="1069.5,-103.79 1073,-113.79 1076.5,-103.79 1069.5,-103.79"/>
</g>
<!-- provideAuth(() =&gt; getAuth()) -->
<g id="node7" class="node">
<title>provideAuth(() =&gt; getAuth())</title>
<polygon fill="#8dd3c7" stroke="black" points="938.13,-84.8 935.13,-88.8 914.13,-88.8 911.13,-84.8 755.87,-84.8 755.87,-48.8 938.13,-48.8 938.13,-84.8"/>
<text text-anchor="middle" x="847" y="-62.6" font-family="Times,serif" font-size="14.00">provideAuth(() =&gt; getAuth())</text>
</g>
<!-- provideAuth(() =&gt; getAuth())&#45;&gt;AppModule -->
<g id="edge6" class="edge">
<title>provideAuth(() =&gt; getAuth())&#45;&gt;AppModule</title>
<path fill="none" stroke="black" d="M847,-84.81C847,-100.85 847,-121.8 847,-121.8 847,-121.8 1021.28,-121.8 1021.28,-121.8"/>
<polygon fill="black" stroke="black" points="1021.28,-125.3 1031.28,-121.8 1021.28,-118.3 1021.28,-125.3"/>
</g>
<!-- provideFirebaseApp(() =&gt; initializeApp(environment -->
<g id="node8" class="node">
<title>provideFirebaseApp(() =&gt; initializeApp(environment</title>
<polygon fill="#8dd3c7" stroke="black" points="737.59,-84.8 734.59,-88.8 713.59,-88.8 710.59,-84.8 422.41,-84.8 422.41,-48.8 737.59,-48.8 737.59,-84.8"/>
<text text-anchor="middle" x="580" y="-62.6" font-family="Times,serif" font-size="14.00">provideFirebaseApp(() =&gt; initializeApp(environment</text>
</g>
<!-- provideFirebaseApp(() =&gt; initializeApp(environment&#45;&gt;AppModule -->
<g id="edge7" class="edge">
<title>provideFirebaseApp(() =&gt; initializeApp(environment&#45;&gt;AppModule</title>
<path fill="none" stroke="black" d="M580,-85.07C580,-103.36 580,-128.8 580,-128.8 580,-128.8 1020.97,-128.8 1020.97,-128.8"/>
<polygon fill="black" stroke="black" points="1020.97,-132.3 1030.97,-128.8 1020.97,-125.3 1020.97,-132.3"/>
</g>
<!-- provideFirestore(() =&gt; getFirestore()) -->
<g id="node9" class="node">
<title>provideFirestore(() =&gt; getFirestore())</title>
<polygon fill="#8dd3c7" stroke="black" points="404.16,-84.8 401.16,-88.8 380.16,-88.8 377.16,-84.8 177.84,-84.8 177.84,-48.8 404.16,-48.8 404.16,-84.8"/>
<text text-anchor="middle" x="291" y="-62.6" font-family="Times,serif" font-size="14.00">provideFirestore(() =&gt; getFirestore())</text>
</g>
<!-- provideFirestore(() =&gt; getFirestore())&#45;&gt;AppModule -->
<g id="edge8" class="edge">
<title>provideFirestore(() =&gt; getFirestore())&#45;&gt;AppModule</title>
<path fill="none" stroke="black" d="M291,-84.93C291,-105.37 291,-135.8 291,-135.8 291,-135.8 1021.23,-135.8 1021.23,-135.8"/>
<polygon fill="black" stroke="black" points="1021.23,-139.3 1031.23,-135.8 1021.23,-132.3 1021.23,-139.3"/>
</g>
<!-- BooksService -->
<g id="node11" class="node">
<title>BooksService</title>
<ellipse fill="#fdb462" stroke="black" cx="89" cy="-66.8" rx="64.86" ry="18"/>
<text text-anchor="middle" x="89" y="-62.6" font-family="Times,serif" font-size="14.00">BooksService</text>
</g>
<!-- BooksService&#45;&gt;AppModule -->
<g id="edge10" class="edge">
<title>BooksService&#45;&gt;AppModule</title>
<path fill="none" stroke="black" d="M89,-84.81C89,-107.29 89,-142.8 89,-142.8 89,-142.8 1021.03,-142.8 1021.03,-142.8"/>
<polygon fill="black" stroke="black" points="1021.03,-146.3 1031.03,-142.8 1021.03,-139.3 1021.03,-146.3"/>
</g>
</g>
</svg>
